<svg width="58" height="58" viewBox="0 0 58 58" fill="none" xmlns="http://www.w3.org/2000/svg">
<g clip-path="url(#clip0_620_510)">
<path d="M49.5061 49.5061C45.4504 53.5618 40.2831 56.3238 34.6576 57.4428C29.0322 58.5617 23.2012 57.9874 17.9022 55.7925C12.6031 53.5976 8.07394 49.8806 4.88738 45.1115C1.70082 40.3425 3.53253e-07 34.7357 0 29C-3.53252e-07 23.2643 1.70082 17.6575 4.88738 12.8885C8.07394 8.11944 12.6031 4.40244 17.9022 2.20749C23.2012 0.0125529 29.0322 -0.561745 34.6576 0.557226C40.2831 1.6762 45.4504 4.43818 49.5061 8.4939L41.3037 16.6963C38.8702 14.2629 35.7698 12.6057 32.3946 11.9343C29.0193 11.263 25.5207 11.6075 22.3413 12.9245C19.1619 14.2415 16.4444 16.4717 14.5324 19.3331C12.6205 22.1945 11.6 25.5586 11.6 29C11.6 32.4414 12.6205 35.8055 14.5324 38.6669C16.4444 41.5283 19.1619 43.7585 22.3413 45.0755C25.5207 46.3925 29.0193 46.737 32.3946 46.0657C35.7698 45.3943 38.8702 43.7371 41.3037 41.3037L49.5061 49.5061Z" fill="#707171"/>
<path d="M50.1333 9.1409C55.1749 14.506 57.9873 21.5878 58 28.95C58.0127 36.3122 55.2248 43.4036 50.2017 48.7861L41.721 40.8716C44.7349 37.6422 46.4076 33.3873 46.4 28.97C46.3924 24.5527 44.7049 20.3036 41.68 17.0845L50.1333 9.1409Z" fill="#A0A0A0"/>
<path d="M58 42.5V58H46.5V54L58 42.5Z" fill="#707171"/>
</g>
<defs>
<clipPath id="clip0_620_510">
<rect width="58" height="58" fill="white"/>
</clipPath>
</defs>
</svg>
