<svg width="58" height="58" viewBox="0 0 58 58" fill="none" xmlns="http://www.w3.org/2000/svg">
<g clip-path="url(#clip0_623_566)">
<path d="M58 58H0V0H58V58ZM50.3721 38C49.2493 38 48.3118 38.1702 47.5596 38.5107C46.8074 38.8514 46.24 39.3019 45.8584 39.8623C45.4877 40.4227 45.3027 41.0499 45.3027 41.7422C45.3028 42.3572 45.4225 42.868 45.6621 43.2744C45.902 43.67 46.2132 43.9943 46.5947 44.2471C46.9762 44.4888 47.3957 44.687 47.8535 44.8408C48.3223 44.9947 48.7863 45.1208 49.2441 45.2197C49.7128 45.3186 50.1381 45.4177 50.5195 45.5166C50.9009 45.6155 51.2114 45.7418 51.4512 45.8955C51.691 46.0494 51.8115 46.2587 51.8115 46.5225C51.8114 46.709 51.7459 46.8739 51.6152 47.0166C51.4954 47.1484 51.2988 47.2578 51.0264 47.3457C50.7539 47.4226 50.3941 47.4619 49.9473 47.4619C49.2823 47.4619 48.6114 47.3572 47.9355 47.1484C47.2705 46.9287 46.6813 46.6539 46.1689 46.3242L45.1064 48.7305C45.6515 49.1041 46.3546 49.4125 47.2158 49.6543C48.088 49.8851 48.9931 50 49.9307 50C51.0643 50 52.0019 49.8298 52.7432 49.4893C53.4953 49.1486 54.0571 48.698 54.4277 48.1377C54.8093 47.5663 55 46.9447 55 46.2744C55 45.6702 54.8804 45.1699 54.6406 44.7744C54.4117 44.3679 54.1062 44.0435 53.7246 43.8018C53.3432 43.5491 52.9178 43.3518 52.4492 43.209C51.9913 43.0551 51.5274 42.929 51.0586 42.8301C50.6008 42.7312 50.1756 42.6377 49.7832 42.5498C49.4017 42.4509 49.0914 42.3293 48.8516 42.1865C48.6227 42.0327 48.5079 41.8298 48.5078 41.5771C48.5078 41.3795 48.5677 41.2036 48.6875 41.0498C48.8074 40.896 49.0038 40.7744 49.2764 40.6865C49.5489 40.5877 49.9086 40.5381 50.3555 40.5381C50.857 40.5381 51.375 40.6157 51.9092 40.7695C52.4434 40.9124 52.9832 41.132 53.5283 41.4287L54.5254 39.0059C53.9586 38.6763 53.3103 38.4285 52.5801 38.2637C51.8605 38.0878 51.1243 38 50.3721 38ZM14 38.2305V49.7695H19.4131C20.6776 49.7695 21.7897 49.533 22.749 49.0605C23.7082 48.5881 24.4551 47.9234 24.9893 47.0664C25.5344 46.1983 25.8066 45.1758 25.8066 44C25.8066 42.8132 25.5344 41.7907 24.9893 40.9336C24.4551 40.0766 23.7082 39.4119 22.749 38.9395C21.7897 38.467 20.6776 38.2305 19.4131 38.2305H14ZM27.5107 38.2305V49.7695H30.748V38.2305H27.5107ZM36.7314 38.2305L31.6787 49.7695H34.9814L35.874 47.5273H40.7285L41.6211 49.7695H44.9893L39.9199 38.2305H36.7314ZM19.2822 40.835C19.9361 40.835 20.5029 40.9613 20.9824 41.2139C21.473 41.4556 21.8554 41.8136 22.1279 42.2861C22.4003 42.7586 22.5361 43.3299 22.5361 44C22.5361 44.6591 22.4003 45.2305 22.1279 45.7139C21.8554 46.1864 21.473 46.549 20.9824 46.8018C20.5028 47.0435 19.9362 47.165 19.2822 47.165H17.2383V40.835H19.2822ZM39.7705 45.1211H36.832L38.3008 41.4326L39.7705 45.1211Z" fill="#707171"/>
</g>
<defs>
<clipPath id="clip0_623_566">
<rect width="58" height="58" fill="white"/>
</clipPath>
</defs>
</svg>
