<svg width="168" height="42" viewBox="0 0 168 42" fill="none" xmlns="http://www.w3.org/2000/svg">
<path d="M37.9897 21.0115C37.9897 17.146 41.1286 14.0078 44.9949 14.0078C48.8613 14.0078 52.0001 17.146 52.0001 21.0115C52.0001 24.8771 48.8613 28.0153 44.9949 28.0153C41.1286 28.0153 37.9897 24.8771 37.9897 21.0115Z" fill="#C3C3C5"/>
<path d="M24 34.9959C24 31.1304 27.1388 27.9922 31.0052 27.9922H38.0103V34.9959C38.0103 38.8615 34.8715 41.9996 31.0052 41.9996C27.1388 41.9996 24 38.8615 24 34.9959Z" fill="#D8D9D9"/>
<path d="M37.9897 0.0207838V14.0075H44.9949C48.8613 14.0075 52.0001 10.8693 52.0001 7.00373C52.0001 3.13817 48.8613 0 44.9949 0H37.9897V0.0207838Z" fill="#A0A0A0"/>
<path d="M24 7.02211C24 10.8877 27.1388 14.0258 31.0052 14.0258H38.0103V0.0391651H31.0052C27.1388 0.0183826 24 3.15655 24 7.02211Z" fill="#707171"/>
<path d="M24 20.9896C24 24.8589 27.1365 28 31 28H38V14.0001H31C27.1365 13.9793 24 17.1204 24 20.9896Z" fill="#9E9E9E"/>
<path d="M62 7V28.8263L64.811 28.8477V18.4491H71.5917V15.7048H64.811V9.74436H73.6303V7H62Z" fill="#707171"/>
<path d="M141.192 15.8341C139.905 14.4833 138.102 13.7329 136.235 13.7544C132.051 13.7544 129.09 17.292 129.09 21.4943C129.09 25.7181 132.051 29.2343 136.235 29.2343C138.102 29.2343 139.883 28.4839 141.192 27.1546V28.8269H144.003V14.1617H141.192V15.8341ZM131.901 21.4943C131.901 18.7071 134.047 16.4773 136.557 16.4773C139.046 16.4987 141.192 18.7071 141.192 21.4943C141.192 24.2816 139.046 26.4899 136.536 26.4899C134.068 26.5114 131.901 24.303 131.901 21.4943Z" fill="#707171"/>
<path d="M110.385 16.4988C108.711 16.5202 107.359 17.8924 107.381 19.5648V28.827H104.57V14.1618H107.381V15.5125C108.239 14.3762 109.57 13.733 111.007 13.7544C112.981 13.7544 114.505 14.7192 115.363 16.2201C116.35 14.6978 118.024 13.7759 119.826 13.7544C123.024 13.7544 125.019 16.3273 125.019 19.5219V28.827H122.23V19.5648C122.23 17.8924 120.899 16.5202 119.226 16.4988C117.552 16.5202 116.2 17.8924 116.222 19.5648V28.827H113.389V19.5648C113.389 17.8924 112.059 16.5202 110.385 16.4988Z" fill="#707171"/>
<path d="M92.8999 13.7539C89.1662 13.7539 86.5698 16.9056 86.5698 20.6577C86.5698 24.4098 89.1662 27.5615 92.8999 27.5615C94.6166 27.5615 96.0114 26.9183 97.0414 25.8248V27.7759C97.0628 30.1986 95.1316 32.214 92.6854 32.2355C92.6639 32.2355 92.6639 32.2355 92.6425 32.2355C91.7412 32.2355 90.8614 31.8924 90.1533 31.3993L88.7371 33.8435C92.0845 36.009 96.5478 35.0442 98.6936 31.6995C99.4447 30.5203 99.8524 29.1695 99.8524 27.7759V14.2042H97.0414V15.512C96.0114 14.4186 94.6166 13.7539 92.8999 13.7539ZM89.3808 20.6577C89.3808 18.3207 91.1618 16.4983 93.2218 16.4983C95.2818 16.4983 97.0414 18.3421 97.0414 20.6577C97.0414 22.9947 95.2603 24.7957 93.2218 24.7957C91.1618 24.7957 89.3808 22.9733 89.3808 20.6577Z" fill="#707171"/>
<path d="M79.8952 11.4377C80.9037 11.4377 81.7406 10.623 81.7406 9.59387C81.7406 8.56473 80.9252 7.75 79.8952 7.75C78.8867 7.75 78.0498 8.56473 78.0498 9.59387C78.0498 10.623 78.8652 11.4377 79.8952 11.4377ZM78.4575 14.1821V28.8473H81.2685V14.1821H78.4575Z" fill="#707171"/>
</svg>
