<svg width="58" height="58" viewBox="0 0 58 58" fill="none" xmlns="http://www.w3.org/2000/svg">
<g clip-path="url(#clip0_623_523)">
<path d="M29 0C34.38 0 39.4169 1.46667 43.7354 4.01953C43.6798 4.00709 43.6314 3.99969 43.5908 4C42.5975 4.00019 39.4812 4 39.4395 4L30.2998 29.0195V41.5195H43.7998V53.9414C39.4669 56.518 34.407 58 29 58C21.2979 58 14.2983 54.9962 9.10547 50.0977C9.16971 50.1159 9.23392 50.1364 9.2998 50.1533C34.2998 54.6533 33.2998 23.0195 19.2998 20.5195L29.7998 4.51953H13.4473C17.9418 1.65814 23.2772 0 29 0ZM55.165 41.5195C54.2406 43.448 53.1093 45.2583 51.7998 46.9219V41.5195H55.165ZM16.2998 13.5195L6.7998 28.0195C33.2998 24.5195 18.2998 52.0195 6.7998 37.5195L2.36133 40.4775C0.842645 36.9575 0 33.0773 0 29C0 23.3076 1.64121 17.999 4.47461 13.5195H16.2998ZM46.7705 6.08301C53.6026 11.3885 58 19.6801 58 29C58 30.364 57.9039 31.7057 57.7217 33.0195H51.7998V24.5195H44.2998V33.0195H37.2998L46.7705 6.08301Z" fill="#707171"/>
</g>
<defs>
<clipPath id="clip0_623_523">
<rect width="58" height="58" fill="white"/>
</clipPath>
</defs>
</svg>
