<svg width="168" height="42" viewBox="0 0 168 42" fill="none" xmlns="http://www.w3.org/2000/svg">
<path d="M116.094 21.415V30.7033H119.898V21.9845C119.898 18.1013 125.184 18.095 125.184 18.095V14.3161L124.798 14.3399C124.282 14.3773 123.338 14.4648 122.539 14.6446L122.067 14.7572C118.936 15.5511 116.094 17.2319 116.094 21.415ZM87.4109 14.1283C88.8931 14.1283 90.7452 14.9668 91.7535 16.4418C92.7976 15.1004 94.5145 14.1951 96.6358 14.1607C99.3307 14.1262 102.663 15.8034 102.663 20.834V30.6918H98.857V20.834C98.857 19.1568 97.6442 17.951 95.8288 17.951C94.0133 17.951 92.7995 19.1568 92.7995 20.834V30.6918H88.9947V20.834C88.9947 19.1568 87.783 17.951 85.9656 17.951C84.1481 17.951 82.9018 19.1568 82.9018 20.834V30.6918H78.8999V14.6279H82.9018V16.2415C83.9204 15.0071 85.3869 14.2194 87.1069 14.1357L87.4109 14.1283ZM111.413 14.8324V30.7034H107.543V14.8324H111.413ZM109.477 12.3072C110.67 12.3072 111.638 11.3448 111.638 10.1575C111.638 8.97027 110.67 8.00781 109.477 8.00781C108.284 8.00781 107.317 8.97027 107.317 10.1575C107.317 11.3448 108.284 12.3072 109.477 12.3072ZM135.517 14.0939C130.832 14.0939 127.034 17.8728 127.034 22.5352C127.034 27.1976 130.832 30.9766 135.517 30.9766C140.202 30.9766 144 27.1976 144 22.5352C144 17.8728 140.202 14.0939 135.517 14.0939ZM135.517 27.1809C132.865 27.1809 130.714 25.0417 130.714 22.4017C130.714 19.7618 132.864 17.6225 135.517 17.6225C138.17 17.6225 140.32 19.7618 140.32 22.4017C140.32 25.0417 138.17 27.1809 135.517 27.1809Z" fill="#707171"/>
<path d="M55.5 0C61.299 0 66 4.70101 66 10.5V31.5C66 37.299 61.299 42 55.5 42H34.5C28.701 42 24 37.299 24 31.5V10.5C24 4.70101 28.701 0 34.5 0H55.5ZM36.6719 16.6924L32.8594 34.0605H36.6719L43.9795 15.4521L40.4844 34.0605H44.2969L51.2871 14.2109L48.1104 34.0605H51.9229L58.9121 12.3496L51.9229 8.00781H48.1104L51.2871 13.5898L44.2969 8.00781H40.4844L43.9795 14.8311L36.6719 8.00781H32.8594L36.6719 16.6924Z" fill="#D8D9D9"/>
</svg>
