<svg width="58" height="58" viewBox="0 0 58 58" fill="none" xmlns="http://www.w3.org/2000/svg">
<g clip-path="url(#clip0_623_527)">
<path d="M42 0C50.8366 9.01961e-07 58 7.16344 58 16V42C58 50.8366 50.8366 58 42 58H16C7.16344 58 0 50.8366 0 42V16C9.02019e-07 7.16344 7.16344 0 16 0H42ZM15.5996 36.4004L12 48H14.4004L17.2002 38.4004L20 48H22.4004L18.7998 36.4004H15.5996ZM24 36.4004V48H26.4004V40L30.4004 48H33.5996V36.4004H31.2002V44.7998L26.7998 36.4004H24ZM39.2002 36.4004L35.5996 48H38L40.7998 38.4004L43.5996 48H46L42.4004 36.4004H39.2002ZM12 23.2002V34.7998H14.7998V27.2002L18.7998 34.7998H21.5996L17.5996 27.5996L21.2002 23.2002H18.4004L14.7998 27.2002V23.2002H12ZM25.5996 23.2002V34.7998H33.2002V32.7998H28.4004V30H32.4004V27.5996H28.4004V25.5996H33.2002V23.2002H25.5996ZM35.5996 23.2002L39.2002 30.4004V34.7998H42V30.4004L45.5996 23.2002H42.7998L40.4004 28.4004L38.4004 23.2002H35.5996ZM12 10V12.4004H15.2002V21.5996H18V12.4004H21.2002V10H12ZM24 10C24 10 24.0001 17.6001 24 18.1201C25.6 22.76 32.7999 22.76 34 18.1201V10H31.2002V17.3467C30.8002 19.6667 27.6002 19.6666 27.2002 17.3467V10H24ZM36.4004 10V21.5996H39.2002V12.4004H41.5996C42.6934 12.5728 42.7997 13.1996 42.7998 13.5996C42.7998 15.1996 41.1023 15.2808 39.5996 15.2002V16L42.7998 21.5996H45.5996L43.2002 16.7998C45.2 15.9999 45.5301 15.7646 45.5996 13.5996C45.5333 11.3611 44.7129 10.5932 42 10H36.4004Z" fill="#707171"/>
</g>
<defs>
<clipPath id="clip0_623_527">
<rect width="58" height="58" fill="white"/>
</clipPath>
</defs>
</svg>
