<svg width="168" height="42" viewBox="0 0 168 42" fill="none" xmlns="http://www.w3.org/2000/svg">
<path d="M69 26.8406L73.2233 15.3187H75.3716L79.5949 26.8406H77.6094L76.5596 23.9482H72.0515L70.9937 26.8406H69ZM72.5235 22.2271H76.0633L74.2974 17.1992L72.5235 22.2271Z" fill="#707171"/>
<path d="M84.1535 27C83.0414 27 82.168 26.6255 81.5332 25.8765C80.8985 25.1275 80.5812 24.0624 80.5812 22.6813C80.5812 21.8207 80.7087 21.0744 80.9636 20.4422C81.224 19.8048 81.6065 19.3134 82.111 18.9681C82.6155 18.6175 83.2367 18.4422 83.9745 18.4422C84.3217 18.4422 84.6363 18.4847 84.9184 18.5697C85.2059 18.6494 85.4609 18.7556 85.6833 18.8884C85.9057 19.0212 86.0929 19.1673 86.2448 19.3267C86.4021 19.4861 86.5242 19.6454 86.611 19.8048V15H88.6047V26.8406H87.1399L86.9202 25.1514C86.8497 25.3479 86.7493 25.5551 86.6191 25.7729C86.4944 25.9854 86.3235 26.1846 86.1065 26.3705C85.8949 26.5564 85.6291 26.7078 85.309 26.8247C84.9889 26.9416 84.6038 27 84.1535 27ZM84.5604 25.5737C85.271 25.5737 85.7891 25.3479 86.1146 24.8964C86.4455 24.4396 86.611 23.6853 86.611 22.6335C86.6056 22.0332 86.5296 21.5286 86.3831 21.1195C86.2421 20.7105 86.0251 20.4024 85.7321 20.1952C85.4392 19.988 85.0567 19.8845 84.5848 19.8845C83.988 19.8845 83.4971 20.0996 83.1119 20.5299C82.7322 20.9602 82.5423 21.6614 82.5423 22.6335C82.5423 23.6003 82.7186 24.3333 83.0712 24.8327C83.4238 25.3267 83.9202 25.5737 84.5604 25.5737Z" fill="#707171"/>
<path d="M94.3666 27C93.5637 27 92.8639 26.8327 92.2671 26.498C91.6704 26.158 91.2065 25.672 90.8756 25.0398C90.5501 24.4077 90.3874 23.6481 90.3874 22.761C90.3874 21.9004 90.5474 21.1461 90.8675 20.498C91.1876 19.8499 91.6432 19.3453 92.2346 18.9841C92.8313 18.6228 93.5447 18.4422 94.3747 18.4422C95.1776 18.4422 95.8747 18.6149 96.466 18.9602C97.0573 19.3054 97.513 19.7995 97.8331 20.4422C98.1586 21.085 98.3213 21.8579 98.3213 22.761C98.3213 23.595 98.1667 24.3307 97.8575 24.9681C97.5537 25.6003 97.1062 26.0969 96.5148 26.4582C95.9289 26.8194 95.2129 27 94.3666 27ZM94.3747 25.5259C94.8304 25.5259 95.2047 25.4037 95.4977 25.1594C95.796 24.915 96.0185 24.5803 96.1649 24.1554C96.3114 23.7304 96.3846 23.247 96.3846 22.7052C96.3846 22.2005 96.3195 21.7357 96.1893 21.3108C96.0591 20.8858 95.8449 20.5458 95.5465 20.2908C95.2535 20.0305 94.8629 19.9004 94.3747 19.9004C93.9136 19.9004 93.5311 20.0199 93.2273 20.259C92.929 20.4927 92.7065 20.822 92.5601 21.247C92.4136 21.6667 92.3404 22.1527 92.3404 22.7052C92.3404 23.2045 92.4055 23.6693 92.5357 24.0996C92.6658 24.5246 92.8801 24.8699 93.1785 25.1355C93.4769 25.3958 93.8756 25.5259 94.3747 25.5259Z" fill="#707171"/>
<path d="M104.576 27C104.125 27 103.74 26.9416 103.42 26.8247C103.1 26.7078 102.831 26.5564 102.614 26.3705C102.403 26.1846 102.232 25.9854 102.102 25.7729C101.977 25.5551 101.882 25.3479 101.817 25.1514L101.589 26.8406H100.133V15H102.118V19.8048C102.205 19.6454 102.324 19.4861 102.476 19.3267C102.633 19.1673 102.823 19.0212 103.046 18.8884C103.268 18.7556 103.52 18.6494 103.803 18.5697C104.09 18.4847 104.407 18.4422 104.755 18.4422C105.802 18.4422 106.629 18.8061 107.236 19.5339C107.844 20.2616 108.148 21.3108 108.148 22.6813C108.148 23.5471 108.012 24.3041 107.741 24.9522C107.475 25.6003 107.076 26.1049 106.545 26.4661C106.019 26.822 105.362 27 104.576 27ZM104.169 25.5737C104.76 25.5737 105.246 25.3426 105.625 24.8805C106.005 24.4183 106.195 23.6693 106.195 22.6335C106.195 21.7304 106.016 21.0478 105.658 20.5857C105.3 20.1182 104.795 19.8845 104.144 19.8845C103.678 19.8845 103.295 19.988 102.997 20.1952C102.704 20.4024 102.484 20.7105 102.338 21.1195C102.197 21.5286 102.123 22.0332 102.118 22.6335C102.118 23.6853 102.281 24.4396 102.606 24.8964C102.937 25.3479 103.458 25.5737 104.169 25.5737Z" fill="#707171"/>
<path d="M113.658 27C112.849 27 112.136 26.8327 111.517 26.498C110.904 26.158 110.424 25.6746 110.077 25.0478C109.735 24.421 109.564 23.6746 109.564 22.8088C109.564 21.9641 109.719 21.2151 110.028 20.5618C110.343 19.9031 110.796 19.3851 111.387 19.008C111.984 18.6308 112.703 18.4422 113.544 18.4422C114.374 18.4422 115.071 18.6149 115.635 18.9602C116.199 19.3054 116.628 19.7888 116.921 20.4104C117.214 21.0266 117.36 21.749 117.36 22.5777V23.1673H111.542C111.536 23.6348 111.612 24.0491 111.77 24.4104C111.927 24.7716 112.16 25.0558 112.469 25.2629C112.779 25.4648 113.161 25.5657 113.617 25.5657C114.083 25.5657 114.488 25.4648 114.829 25.2629C115.177 25.0558 115.407 24.7424 115.521 24.3227H117.328C117.23 24.8964 116.997 25.3825 116.628 25.7809C116.264 26.1793 115.819 26.4821 115.293 26.6892C114.772 26.8964 114.227 27 113.658 27ZM111.534 21.9641H115.488C115.488 21.5657 115.415 21.2072 115.269 20.8884C115.128 20.5644 114.913 20.3094 114.626 20.1235C114.338 19.9323 113.975 19.8367 113.535 19.8367C113.101 19.8367 112.735 19.9402 112.437 20.1474C112.139 20.3546 111.913 20.6228 111.762 20.9522C111.61 21.2762 111.534 21.6135 111.534 21.9641Z" fill="#707171"/>
<path d="M122.402 26.8406L126.348 20.9761L122.532 15.3187H124.973L127.585 19.3506L130.181 15.3187H132.313L128.627 20.745L132.752 26.8406H130.295L127.398 22.4104L124.55 26.8406H122.402Z" fill="#707171"/>
<path d="M134.732 26.8406V15.3187C134.78 15.3187 134.924 15.3187 135.163 15.3187C135.401 15.3187 135.684 15.3187 136.009 15.3187C136.34 15.3187 136.674 15.3214 137.01 15.3267C137.352 15.3267 137.647 15.3293 137.897 15.3347C139.329 15.3612 140.493 15.6029 141.388 16.0598C142.288 16.5113 142.948 17.1567 143.365 17.996C143.788 18.83 144 19.8367 144 21.0159C144 22.2483 143.775 23.2975 143.325 24.1633C142.88 25.0292 142.196 25.6932 141.274 26.1554C140.357 26.6122 139.191 26.8406 137.775 26.8406H134.732ZM136.741 25.239H137.807C138.616 25.239 139.329 25.1036 139.948 24.8327C140.566 24.5564 141.049 24.1102 141.396 23.494C141.749 22.8778 141.925 22.0544 141.925 21.0239C141.925 20.0252 141.762 19.2258 141.437 18.6255C141.111 18.0252 140.645 17.5923 140.037 17.3267C139.429 17.0558 138.703 16.9203 137.856 16.9203H136.741V25.239Z" fill="#707171"/>
<path d="M58.5625 0C62.6749 3.25386e-07 65.9999 3.41011 66 7.62793V34.3721C65.9999 38.5899 62.6749 42 58.5625 42H31.4375C27.3251 42 24.0001 38.5899 24 34.3721V7.62793C24.0001 3.41011 27.3251 0 31.4375 0H58.5625ZM56.0605 9.20605C55.9381 9.20605 55.8848 9.2777 55.8848 9.40332V15.0752C55.675 15.0573 55.5002 15.057 55.3428 15.0391C55.1855 15.0211 55.0631 15.0215 54.9756 15.0215C53.2431 15.0215 51.7728 15.3625 50.5479 16.0625C49.3929 16.7087 48.4306 17.6781 47.7656 18.8447C47.1182 19.9934 46.7852 21.3037 46.8027 22.6318C46.8028 24.265 47.1182 25.6288 47.7656 26.7236C48.3956 27.7825 49.3049 28.6445 50.4072 29.165C51.5796 29.7214 52.875 29.9906 54.1699 29.9727C55.0799 29.9727 55.9727 29.8832 56.8652 29.7217C57.8452 29.5422 58.8078 29.2542 59.7178 28.8594C59.8401 28.8055 59.8926 28.6978 59.8926 28.5723C59.8751 28.2672 59.8573 27.908 59.8223 27.5312C59.8048 27.1367 59.7881 26.778 59.7881 26.4551V9.33203C59.7706 9.26024 59.6998 9.18811 59.6123 9.20605H56.0605ZM30.4404 10.7695C30.3704 10.7695 30.2996 10.788 30.2646 10.8418C30.2303 10.8778 30.2477 10.9491 30.2998 11.0205L35.6025 20.2285L30.1602 29.3828C30.1253 29.4366 30.1075 29.5084 30.125 29.5801C30.1251 29.6693 30.1774 29.6339 30.2471 29.6338H34.0977C34.29 29.6338 34.43 29.6157 34.5 29.4365C34.9025 28.7006 35.3055 27.9287 35.708 27.1748C36.093 26.421 36.495 25.6487 36.8975 24.877C37.2999 24.1052 37.7028 23.3333 38.0703 22.5615H38.1055C38.5255 23.3513 38.9452 24.1237 39.3652 24.8955C39.7851 25.667 40.1873 26.4206 40.5547 27.1562C40.9222 27.9101 41.3073 28.6466 41.6748 29.4004C41.7973 29.5799 41.9905 29.5977 42.2705 29.5977H46.2773C46.3823 29.5797 46.4522 29.6333 46.4697 29.5615C46.4871 29.4898 46.4695 29.4184 46.4346 29.3467L40.835 19.9238L46.085 11.0391C46.1199 11.0032 46.1551 10.9311 46.1377 10.9131C46.1246 10.8459 46.072 10.799 46.0098 10.7871H42.2529C42.1656 10.7692 42.0953 10.7875 42.0254 10.8232C41.9729 10.8591 41.9374 10.9311 41.9199 11.0029C41.5349 11.7388 41.1496 12.5108 40.7471 13.2646C40.3446 14.0184 39.9426 14.7726 39.5576 15.5264C39.1727 16.2801 38.7874 17.0522 38.4199 17.8418H38.3848C38.0173 17.07 37.6329 16.3154 37.2129 15.5615C36.7754 14.8077 36.3721 14.054 35.9521 13.2822C35.5497 12.5105 35.1655 11.7385 34.833 10.9668C34.7805 10.895 34.7272 10.8416 34.6572 10.8057C34.5873 10.7877 34.4995 10.7695 34.4121 10.7695H30.4404ZM54.835 18.3594C55.0275 18.3594 55.2206 18.3776 55.4131 18.3955C55.5703 18.4135 55.7275 18.4495 55.8848 18.4854V26.3828C55.6749 26.4545 55.4823 26.4906 55.2549 26.4727C55.0276 26.4906 54.7828 26.5088 54.5205 26.5088C54.0305 26.5088 53.5399 26.4369 53.0674 26.2754C52.6126 26.1318 52.2103 25.8805 51.8779 25.5576C51.528 25.1987 51.2648 24.7677 51.0898 24.2832C50.8799 23.691 50.7755 23.0626 50.793 22.4346C50.793 21.5012 50.9851 20.7287 51.3701 20.1543C51.7551 19.5801 52.2625 19.1313 52.8574 18.8262C53.4699 18.5031 54.1525 18.3594 54.835 18.3594Z" fill="#707171"/>
</svg>
