<svg width="168" height="42" viewBox="0 0 168 42" fill="none" xmlns="http://www.w3.org/2000/svg">
<path fill-rule="evenodd" clip-rule="evenodd" d="M29.4289 29.9075L24 23.6568L40.6176 17.4297L43.2042 24.7459L29.4289 29.9075Z" fill="#A0A0A0"/>
<path fill-rule="evenodd" clip-rule="evenodd" d="M29.3891 29.7944L29.1333 38.1756L45.7509 31.9485L43.1644 24.6328L29.3891 29.7944Z" fill="#C3C3C5"/>
<path fill-rule="evenodd" clip-rule="evenodd" d="M75.5684 12.6328C77.9395 19.7048 70.2995 28.9976 58.4153 33.451C46.53 37.9038 34.8755 35.841 32.2759 28.8542L75.5684 12.6328Z" fill="#707171"/>
<path fill-rule="evenodd" clip-rule="evenodd" d="M75.5691 12.6368C72.9863 5.63207 61.3193 3.56084 49.422 8.01816C37.5242 12.476 29.8804 21.784 32.276 28.8593L75.5691 12.6368Z" fill="#D8D9D9"/>
<path fill-rule="evenodd" clip-rule="evenodd" d="M75.5677 12.6328C77.0457 17.3647 68.751 24.7341 56.9033 29.173C45.055 33.6129 34.0998 33.4566 32.2778 28.8536L75.5677 12.6328Z" fill="#A0A0A0"/>
<path fill-rule="evenodd" clip-rule="evenodd" d="M75.5683 12.6341C73.7736 8.0093 62.8015 7.84515 50.9341 12.2924C39.0668 16.7391 30.7645 24.1248 32.2769 28.8555L75.5683 12.6341Z" fill="#C3C3C5"/>
<path d="M55.5969 6.21597C54.466 2.1906 53.1795 -0.0419807 51.7167 0.000598029C48.8886 0.0835144 47.9378 9.31525 48.8532 21.1448C49.7783 33.0999 52.1777 42.0807 55.1691 41.9995C56.953 41.9513 57.9576 39.0133 58.3102 33.9123C58.3174 33.8081 58.2047 33.8804 58.2112 33.7739C58.2112 33.7739 58.1965 33.5879 58.1296 33.5834L57.7503 33.5582C57.4395 38.5108 56.4981 41.3647 55.1539 41.4011C52.6952 41.4672 50.3214 32.5834 49.4333 21.0978C48.5588 9.80042 49.5002 0.664482 51.7336 0.598933C52.791 0.568119 53.9757 2.62422 55.0238 6.33137C55.0238 6.33137 55.5974 6.21765 55.5969 6.21597Z" fill="#707171"/>
<path d="M41.5817 3.34307C39.1726 4.87086 42.8329 13.3547 49.3708 23.1287C55.9779 33.0059 62.418 39.5484 64.9692 37.9383C66.395 37.0385 65.995 34.3068 64.1583 30.1833C64.1434 30.1461 64.1213 30.1124 64.0935 30.0842C64.0656 30.056 64.0324 30.0338 63.996 30.0191C63.9596 30.0044 63.9207 29.9973 63.8816 29.9985C63.8426 29.9996 63.8041 30.0088 63.7685 30.0256C63.733 30.0424 63.7011 30.0664 63.6748 30.0962C63.6485 30.1259 63.6283 30.1609 63.6154 30.1989C63.6025 30.2369 63.5972 30.2772 63.5998 30.3173C63.6023 30.3575 63.6128 30.3967 63.6305 30.4327C65.3371 34.2664 65.7038 36.7724 64.665 37.4279C62.5682 38.7506 56.1983 32.2792 49.8497 22.7887C43.6062 13.4555 39.984 5.05966 41.887 3.85289C42.8971 3.21197 45.3002 4.75825 48.4756 8.09788C48.511 8.13485 48.714 8.35167 48.7592 8.36567C48.8577 8.39648 48.8081 8.18191 48.887 8.10236C48.9144 8.07487 48.9362 8.04209 48.9512 8.00592C48.9662 7.96974 48.9742 7.93086 48.9746 7.89152C48.975 7.85218 48.9679 7.81314 48.9536 7.77664C48.9393 7.74014 48.9182 7.7069 48.8914 7.67881C45.4989 4.11116 42.9531 2.47356 41.5817 3.34307Z" fill="#707171"/>
<path fill-rule="evenodd" clip-rule="evenodd" d="M95.8847 24.64H102.2V28H92.2002V14H102.2V17.3594H95.8847V19.0397H99.8314V22.3997H95.8847V24.64Z" fill="#707171"/>
<path fill-rule="evenodd" clip-rule="evenodd" d="M132.001 14V28H135.547V20.1592L140.455 28H144.001V14H140.455V21.9567L135.547 14.0203L132.001 14Z" fill="#707171"/>
<path fill-rule="evenodd" clip-rule="evenodd" d="M126.801 14H130.801V28H126.801V14Z" fill="#707171"/>
<path fill-rule="evenodd" clip-rule="evenodd" d="M119.49 24.64H125.601V28H115.601V14H119.49L119.49 24.64Z" fill="#707171"/>
<path d="M106.803 20.4401H109.427C109.633 20.44 109.837 20.3964 110.028 20.3119C110.218 20.2274 110.391 20.1036 110.537 19.9476C110.682 19.7917 110.798 19.6066 110.876 19.4029C110.955 19.1992 110.996 18.9809 110.995 18.7605C110.996 18.5401 110.955 18.3217 110.877 18.118C110.798 17.9142 110.682 17.729 110.537 17.573C110.391 17.4169 110.218 17.2931 110.028 17.2086C109.837 17.124 109.633 17.0804 109.427 17.0803H106.803L106.803 20.4401ZM109.951 14.0007C110.535 14.0007 111.114 14.1239 111.654 14.3632C112.194 14.6025 112.685 14.9531 113.098 15.3951C113.511 15.8372 113.839 16.3619 114.062 16.9393C114.286 17.5167 114.401 18.1356 114.4 18.7605C114.401 19.3854 114.286 20.0042 114.062 20.5816C113.839 21.159 113.511 21.6837 113.098 22.1257C112.684 22.5677 112.194 22.9184 111.654 23.1577C111.114 23.397 110.535 23.5202 109.951 23.5204H107.172V28H103.4V14L109.951 14.0007Z" fill="#707171"/>
<path fill-rule="evenodd" clip-rule="evenodd" d="M91 17.3599V14H80V17.3592H86.1704L80 24.6401V28H91V24.6401H85.0975L91 17.3599Z" fill="#707171"/>
</svg>
